<mxfile host="app.diagrams.net" modified="2022-07-18T15:39:56.551Z" agent="5.0 (Macintosh; Intel Mac OS X 10_15_7) AppleWebKit/537.36 (KHTML, like Gecko) Chrome/103.0.0.0 Safari/537.36" etag="oaRdpNAkz864IZ7X4FpV" version="20.0.4" type="github">
  <diagram id="QCfpMcjPO-ucTy-mPFH5" name="Page-1">
    <mxGraphModel dx="2986" dy="1256" grid="1" gridSize="10" guides="1" tooltips="1" connect="1" arrows="1" fold="1" page="1" pageScale="1" pageWidth="827" pageHeight="1169" math="0" shadow="0">
      <root>
        <mxCell id="0" />
        <mxCell id="1" parent="0" />
        <mxCell id="xPoohCOQVxPCVywEzcK_-66" value="" style="rounded=0;whiteSpace=wrap;html=1;dashed=1;dashPattern=1 2;" vertex="1" parent="1">
          <mxGeometry x="-230" y="325" width="1000" height="50" as="geometry" />
        </mxCell>
        <mxCell id="xPoohCOQVxPCVywEzcK_-64" value="" style="rounded=0;whiteSpace=wrap;html=1;dashed=1;dashPattern=1 2;" vertex="1" parent="1">
          <mxGeometry x="350" y="520" width="420" height="110" as="geometry" />
        </mxCell>
        <mxCell id="xPoohCOQVxPCVywEzcK_-62" value="" style="rounded=0;whiteSpace=wrap;html=1;dashed=1;dashPattern=1 2;" vertex="1" parent="1">
          <mxGeometry x="-230" y="520" width="560" height="110" as="geometry" />
        </mxCell>
        <mxCell id="xPoohCOQVxPCVywEzcK_-60" value="" style="rounded=0;whiteSpace=wrap;html=1;dashed=1;dashPattern=1 2;" vertex="1" parent="1">
          <mxGeometry x="-230" y="390" width="1000" height="110" as="geometry" />
        </mxCell>
        <mxCell id="xPoohCOQVxPCVywEzcK_-2" value="" style="edgeStyle=orthogonalEdgeStyle;rounded=0;orthogonalLoop=1;jettySize=auto;html=1;" edge="1" parent="1" source="YFskkvENC4osRbuaVKP--1" target="xPoohCOQVxPCVywEzcK_-1">
          <mxGeometry relative="1" as="geometry" />
        </mxCell>
        <mxCell id="YFskkvENC4osRbuaVKP--1" value="Web Service" style="rounded=0;whiteSpace=wrap;html=1;" parent="1" vertex="1">
          <mxGeometry x="354" y="110" width="120" height="40" as="geometry" />
        </mxCell>
        <mxCell id="xPoohCOQVxPCVywEzcK_-8" value="" style="edgeStyle=orthogonalEdgeStyle;rounded=0;orthogonalLoop=1;jettySize=auto;html=1;" edge="1" parent="1" source="xPoohCOQVxPCVywEzcK_-1" target="xPoohCOQVxPCVywEzcK_-7">
          <mxGeometry relative="1" as="geometry">
            <Array as="points">
              <mxPoint x="410" y="290" />
              <mxPoint y="290" />
            </Array>
          </mxGeometry>
        </mxCell>
        <mxCell id="xPoohCOQVxPCVywEzcK_-10" value="" style="edgeStyle=orthogonalEdgeStyle;rounded=0;orthogonalLoop=1;jettySize=auto;html=1;" edge="1" parent="1" source="xPoohCOQVxPCVywEzcK_-1" target="xPoohCOQVxPCVywEzcK_-9">
          <mxGeometry relative="1" as="geometry">
            <Array as="points">
              <mxPoint x="414" y="300" />
              <mxPoint x="150" y="300" />
            </Array>
          </mxGeometry>
        </mxCell>
        <mxCell id="xPoohCOQVxPCVywEzcK_-12" style="edgeStyle=orthogonalEdgeStyle;rounded=0;orthogonalLoop=1;jettySize=auto;html=1;" edge="1" parent="1" source="xPoohCOQVxPCVywEzcK_-1" target="xPoohCOQVxPCVywEzcK_-11">
          <mxGeometry relative="1" as="geometry">
            <Array as="points">
              <mxPoint x="430" y="290" />
              <mxPoint x="630" y="290" />
            </Array>
          </mxGeometry>
        </mxCell>
        <mxCell id="xPoohCOQVxPCVywEzcK_-14" style="edgeStyle=orthogonalEdgeStyle;rounded=0;orthogonalLoop=1;jettySize=auto;html=1;" edge="1" parent="1" source="xPoohCOQVxPCVywEzcK_-1" target="xPoohCOQVxPCVywEzcK_-13">
          <mxGeometry relative="1" as="geometry">
            <Array as="points">
              <mxPoint x="420" y="310" />
              <mxPoint x="354" y="310" />
            </Array>
          </mxGeometry>
        </mxCell>
        <mxCell id="xPoohCOQVxPCVywEzcK_-1" value="Ingress Service" style="rounded=0;whiteSpace=wrap;html=1;" vertex="1" parent="1">
          <mxGeometry x="354" y="210" width="120" height="40" as="geometry" />
        </mxCell>
        <mxCell id="xPoohCOQVxPCVywEzcK_-4" value="" style="edgeStyle=orthogonalEdgeStyle;rounded=0;orthogonalLoop=1;jettySize=auto;html=1;" edge="1" parent="1" source="xPoohCOQVxPCVywEzcK_-3" target="xPoohCOQVxPCVywEzcK_-1">
          <mxGeometry relative="1" as="geometry">
            <Array as="points">
              <mxPoint x="520" y="210" />
              <mxPoint x="520" y="230" />
            </Array>
          </mxGeometry>
        </mxCell>
        <mxCell id="xPoohCOQVxPCVywEzcK_-3" value="Ingress Srvice Privider" style="rounded=0;whiteSpace=wrap;html=1;" vertex="1" parent="1">
          <mxGeometry x="570" y="190" width="120" height="40" as="geometry" />
        </mxCell>
        <mxCell id="xPoohCOQVxPCVywEzcK_-6" value="" style="edgeStyle=orthogonalEdgeStyle;rounded=0;orthogonalLoop=1;jettySize=auto;html=1;" edge="1" parent="1" source="xPoohCOQVxPCVywEzcK_-5" target="xPoohCOQVxPCVywEzcK_-1">
          <mxGeometry relative="1" as="geometry">
            <Array as="points">
              <mxPoint x="520" y="260" />
              <mxPoint x="520" y="230" />
            </Array>
          </mxGeometry>
        </mxCell>
        <mxCell id="xPoohCOQVxPCVywEzcK_-5" value="Certificate Provider" style="rounded=0;whiteSpace=wrap;html=1;" vertex="1" parent="1">
          <mxGeometry x="570" y="240" width="120" height="40" as="geometry" />
        </mxCell>
        <mxCell id="xPoohCOQVxPCVywEzcK_-42" style="edgeStyle=orthogonalEdgeStyle;rounded=0;orthogonalLoop=1;jettySize=auto;html=1;entryX=0.582;entryY=-0.144;entryDx=0;entryDy=0;entryPerimeter=0;" edge="1" parent="1" source="xPoohCOQVxPCVywEzcK_-7" target="xPoohCOQVxPCVywEzcK_-16">
          <mxGeometry relative="1" as="geometry" />
        </mxCell>
        <mxCell id="xPoohCOQVxPCVywEzcK_-7" value="Admin-Api" style="rounded=0;whiteSpace=wrap;html=1;" vertex="1" parent="1">
          <mxGeometry x="-66" y="330" width="120" height="40" as="geometry" />
        </mxCell>
        <mxCell id="xPoohCOQVxPCVywEzcK_-43" style="edgeStyle=orthogonalEdgeStyle;rounded=0;orthogonalLoop=1;jettySize=auto;html=1;exitX=0.5;exitY=1;exitDx=0;exitDy=0;entryX=0.5;entryY=0;entryDx=0;entryDy=0;" edge="1" parent="1" source="xPoohCOQVxPCVywEzcK_-9" target="xPoohCOQVxPCVywEzcK_-22">
          <mxGeometry relative="1" as="geometry" />
        </mxCell>
        <mxCell id="xPoohCOQVxPCVywEzcK_-9" value="User-Api (Auth)" style="rounded=0;whiteSpace=wrap;html=1;" vertex="1" parent="1">
          <mxGeometry x="84" y="330" width="120" height="40" as="geometry" />
        </mxCell>
        <mxCell id="xPoohCOQVxPCVywEzcK_-41" style="edgeStyle=orthogonalEdgeStyle;rounded=0;orthogonalLoop=1;jettySize=auto;html=1;entryX=0.618;entryY=-0.011;entryDx=0;entryDy=0;entryPerimeter=0;" edge="1" parent="1" source="xPoohCOQVxPCVywEzcK_-11" target="xPoohCOQVxPCVywEzcK_-38">
          <mxGeometry relative="1" as="geometry" />
        </mxCell>
        <mxCell id="xPoohCOQVxPCVywEzcK_-11" value="Front-End" style="rounded=0;whiteSpace=wrap;html=1;" vertex="1" parent="1">
          <mxGeometry x="570" y="330" width="120" height="40" as="geometry" />
        </mxCell>
        <mxCell id="xPoohCOQVxPCVywEzcK_-35" style="edgeStyle=orthogonalEdgeStyle;rounded=0;orthogonalLoop=1;jettySize=auto;html=1;entryX=0.5;entryY=0;entryDx=0;entryDy=0;" edge="1" parent="1" source="xPoohCOQVxPCVywEzcK_-13" target="xPoohCOQVxPCVywEzcK_-26">
          <mxGeometry relative="1" as="geometry" />
        </mxCell>
        <mxCell id="xPoohCOQVxPCVywEzcK_-45" style="edgeStyle=orthogonalEdgeStyle;rounded=0;orthogonalLoop=1;jettySize=auto;html=1;exitX=1;exitY=0.5;exitDx=0;exitDy=0;entryX=0.5;entryY=0;entryDx=0;entryDy=0;" edge="1" parent="1" source="xPoohCOQVxPCVywEzcK_-13" target="xPoohCOQVxPCVywEzcK_-31">
          <mxGeometry relative="1" as="geometry" />
        </mxCell>
        <mxCell id="xPoohCOQVxPCVywEzcK_-13" value="File-Server" style="rounded=0;whiteSpace=wrap;html=1;" vertex="1" parent="1">
          <mxGeometry x="294" y="330" width="120" height="40" as="geometry" />
        </mxCell>
        <mxCell id="xPoohCOQVxPCVywEzcK_-20" value="" style="group" vertex="1" connectable="0" parent="1">
          <mxGeometry x="-70" y="410" width="130" height="50" as="geometry" />
        </mxCell>
        <mxCell id="xPoohCOQVxPCVywEzcK_-16" value="Admin-Service" style="rounded=0;whiteSpace=wrap;html=1;" vertex="1" parent="xPoohCOQVxPCVywEzcK_-20">
          <mxGeometry width="110" height="30" as="geometry" />
        </mxCell>
        <mxCell id="xPoohCOQVxPCVywEzcK_-18" value="Admin-Service" style="rounded=0;whiteSpace=wrap;html=1;" vertex="1" parent="xPoohCOQVxPCVywEzcK_-20">
          <mxGeometry x="10" y="10" width="110" height="30" as="geometry" />
        </mxCell>
        <mxCell id="xPoohCOQVxPCVywEzcK_-19" value="Admin-Service" style="rounded=0;whiteSpace=wrap;html=1;" vertex="1" parent="xPoohCOQVxPCVywEzcK_-20">
          <mxGeometry x="20" y="20" width="110" height="30" as="geometry" />
        </mxCell>
        <mxCell id="xPoohCOQVxPCVywEzcK_-21" value="" style="group" vertex="1" connectable="0" parent="1">
          <mxGeometry x="89" y="410" width="130" height="50" as="geometry" />
        </mxCell>
        <mxCell id="xPoohCOQVxPCVywEzcK_-22" value="Admin-Service" style="rounded=0;whiteSpace=wrap;html=1;" vertex="1" parent="xPoohCOQVxPCVywEzcK_-21">
          <mxGeometry width="110" height="30" as="geometry" />
        </mxCell>
        <mxCell id="xPoohCOQVxPCVywEzcK_-23" value="Admin-Service" style="rounded=0;whiteSpace=wrap;html=1;" vertex="1" parent="xPoohCOQVxPCVywEzcK_-21">
          <mxGeometry x="10" y="10" width="110" height="30" as="geometry" />
        </mxCell>
        <mxCell id="xPoohCOQVxPCVywEzcK_-24" value="Auth Service" style="rounded=0;whiteSpace=wrap;html=1;" vertex="1" parent="xPoohCOQVxPCVywEzcK_-21">
          <mxGeometry x="20" y="20" width="110" height="30" as="geometry" />
        </mxCell>
        <mxCell id="xPoohCOQVxPCVywEzcK_-25" value="" style="group" vertex="1" connectable="0" parent="1">
          <mxGeometry x="260" y="420" width="130" height="50" as="geometry" />
        </mxCell>
        <mxCell id="xPoohCOQVxPCVywEzcK_-26" value="Admin-Service" style="rounded=0;whiteSpace=wrap;html=1;" vertex="1" parent="xPoohCOQVxPCVywEzcK_-25">
          <mxGeometry width="110" height="30" as="geometry" />
        </mxCell>
        <mxCell id="xPoohCOQVxPCVywEzcK_-27" value="Admin-Service" style="rounded=0;whiteSpace=wrap;html=1;" vertex="1" parent="xPoohCOQVxPCVywEzcK_-25">
          <mxGeometry x="10" y="10" width="110" height="30" as="geometry" />
        </mxCell>
        <mxCell id="xPoohCOQVxPCVywEzcK_-28" value="File Index Service" style="rounded=0;whiteSpace=wrap;html=1;" vertex="1" parent="xPoohCOQVxPCVywEzcK_-25">
          <mxGeometry x="20" y="20" width="110" height="30" as="geometry" />
        </mxCell>
        <mxCell id="xPoohCOQVxPCVywEzcK_-30" value="" style="group" vertex="1" connectable="0" parent="1">
          <mxGeometry x="410" y="420" width="130" height="50" as="geometry" />
        </mxCell>
        <mxCell id="xPoohCOQVxPCVywEzcK_-31" value="Admin-Service" style="rounded=0;whiteSpace=wrap;html=1;" vertex="1" parent="xPoohCOQVxPCVywEzcK_-30">
          <mxGeometry width="110" height="30" as="geometry" />
        </mxCell>
        <mxCell id="xPoohCOQVxPCVywEzcK_-32" value="Admin-Service" style="rounded=0;whiteSpace=wrap;html=1;" vertex="1" parent="xPoohCOQVxPCVywEzcK_-30">
          <mxGeometry x="10" y="10" width="110" height="30" as="geometry" />
        </mxCell>
        <mxCell id="xPoohCOQVxPCVywEzcK_-33" value="File Storage" style="rounded=0;whiteSpace=wrap;html=1;" vertex="1" parent="xPoohCOQVxPCVywEzcK_-30">
          <mxGeometry x="20" y="20" width="110" height="30" as="geometry" />
        </mxCell>
        <mxCell id="xPoohCOQVxPCVywEzcK_-37" value="" style="group" vertex="1" connectable="0" parent="1">
          <mxGeometry x="600" y="410" width="130" height="50" as="geometry" />
        </mxCell>
        <mxCell id="xPoohCOQVxPCVywEzcK_-38" value="Admin-Service" style="rounded=0;whiteSpace=wrap;html=1;" vertex="1" parent="xPoohCOQVxPCVywEzcK_-37">
          <mxGeometry width="110" height="30" as="geometry" />
        </mxCell>
        <mxCell id="xPoohCOQVxPCVywEzcK_-39" value="Admin-Service" style="rounded=0;whiteSpace=wrap;html=1;" vertex="1" parent="xPoohCOQVxPCVywEzcK_-37">
          <mxGeometry x="10" y="10" width="110" height="30" as="geometry" />
        </mxCell>
        <mxCell id="xPoohCOQVxPCVywEzcK_-40" value="Front-End service" style="rounded=0;whiteSpace=wrap;html=1;" vertex="1" parent="xPoohCOQVxPCVywEzcK_-37">
          <mxGeometry x="20" y="20" width="110" height="30" as="geometry" />
        </mxCell>
        <mxCell id="xPoohCOQVxPCVywEzcK_-49" style="edgeStyle=orthogonalEdgeStyle;rounded=0;orthogonalLoop=1;jettySize=auto;html=1;entryX=0;entryY=0.75;entryDx=0;entryDy=0;" edge="1" parent="1" source="xPoohCOQVxPCVywEzcK_-19" target="xPoohCOQVxPCVywEzcK_-15">
          <mxGeometry relative="1" as="geometry">
            <Array as="points">
              <mxPoint x="5" y="585" />
            </Array>
          </mxGeometry>
        </mxCell>
        <mxCell id="xPoohCOQVxPCVywEzcK_-50" value="" style="group" vertex="1" connectable="0" parent="1">
          <mxGeometry x="104" y="555" width="140" height="60" as="geometry" />
        </mxCell>
        <mxCell id="xPoohCOQVxPCVywEzcK_-15" value="Database (Postgres)" style="rounded=0;whiteSpace=wrap;html=1;" vertex="1" parent="xPoohCOQVxPCVywEzcK_-50">
          <mxGeometry width="120" height="40" as="geometry" />
        </mxCell>
        <mxCell id="xPoohCOQVxPCVywEzcK_-47" value="Database (Postgres)" style="rounded=0;whiteSpace=wrap;html=1;" vertex="1" parent="xPoohCOQVxPCVywEzcK_-50">
          <mxGeometry x="10" y="10" width="120" height="40" as="geometry" />
        </mxCell>
        <mxCell id="xPoohCOQVxPCVywEzcK_-48" value="Database (Postgres)" style="rounded=0;whiteSpace=wrap;html=1;" vertex="1" parent="xPoohCOQVxPCVywEzcK_-50">
          <mxGeometry x="20" y="20" width="120" height="40" as="geometry" />
        </mxCell>
        <mxCell id="xPoohCOQVxPCVywEzcK_-51" style="edgeStyle=orthogonalEdgeStyle;rounded=0;orthogonalLoop=1;jettySize=auto;html=1;exitX=0.5;exitY=1;exitDx=0;exitDy=0;" edge="1" parent="1" source="xPoohCOQVxPCVywEzcK_-24" target="xPoohCOQVxPCVywEzcK_-15">
          <mxGeometry relative="1" as="geometry">
            <mxPoint x="164" y="550" as="targetPoint" />
          </mxGeometry>
        </mxCell>
        <mxCell id="xPoohCOQVxPCVywEzcK_-52" style="edgeStyle=orthogonalEdgeStyle;rounded=0;orthogonalLoop=1;jettySize=auto;html=1;entryX=0.75;entryY=0;entryDx=0;entryDy=0;" edge="1" parent="1">
          <mxGeometry relative="1" as="geometry">
            <mxPoint x="331" y="470" as="sourcePoint" />
            <mxPoint x="190" y="555" as="targetPoint" />
            <Array as="points">
              <mxPoint x="331" y="510" />
              <mxPoint x="190" y="510" />
            </Array>
          </mxGeometry>
        </mxCell>
        <mxCell id="xPoohCOQVxPCVywEzcK_-55" value="Azure Block Storage" style="rounded=0;whiteSpace=wrap;html=1;" vertex="1" parent="1">
          <mxGeometry x="425" y="575" width="120" height="40" as="geometry" />
        </mxCell>
        <mxCell id="xPoohCOQVxPCVywEzcK_-58" style="edgeStyle=orthogonalEdgeStyle;rounded=0;orthogonalLoop=1;jettySize=auto;html=1;" edge="1" parent="1" source="xPoohCOQVxPCVywEzcK_-33" target="xPoohCOQVxPCVywEzcK_-55">
          <mxGeometry relative="1" as="geometry" />
        </mxCell>
        <mxCell id="xPoohCOQVxPCVywEzcK_-59" value="Pods" style="text;html=1;strokeColor=none;fillColor=none;align=center;verticalAlign=middle;whiteSpace=wrap;rounded=0;" vertex="1" parent="1">
          <mxGeometry x="-220" y="420" width="60" height="30" as="geometry" />
        </mxCell>
        <mxCell id="xPoohCOQVxPCVywEzcK_-63" value="Azure Database" style="text;html=1;strokeColor=none;fillColor=none;align=center;verticalAlign=middle;whiteSpace=wrap;rounded=0;dashed=1;dashPattern=1 2;" vertex="1" parent="1">
          <mxGeometry x="-220" y="555" width="60" height="30" as="geometry" />
        </mxCell>
        <mxCell id="xPoohCOQVxPCVywEzcK_-65" value="Azure Storage" style="text;html=1;strokeColor=none;fillColor=none;align=center;verticalAlign=middle;whiteSpace=wrap;rounded=0;dashed=1;dashPattern=1 2;" vertex="1" parent="1">
          <mxGeometry x="660" y="570" width="60" height="30" as="geometry" />
        </mxCell>
        <mxCell id="xPoohCOQVxPCVywEzcK_-67" value="AKS deployment" style="text;html=1;strokeColor=none;fillColor=none;align=center;verticalAlign=middle;whiteSpace=wrap;rounded=0;dashed=1;dashPattern=1 2;" vertex="1" parent="1">
          <mxGeometry x="-220" y="335" width="100" height="30" as="geometry" />
        </mxCell>
        <mxCell id="xPoohCOQVxPCVywEzcK_-68" value="" style="shape=flexArrow;endArrow=classic;html=1;rounded=0;" edge="1" parent="1">
          <mxGeometry width="50" height="50" relative="1" as="geometry">
            <mxPoint x="-320" y="190" as="sourcePoint" />
            <mxPoint x="-320" y="280" as="targetPoint" />
          </mxGeometry>
        </mxCell>
        <mxCell id="xPoohCOQVxPCVywEzcK_-70" value="" style="endArrow=none;html=1;rounded=0;dashed=1;dashPattern=1 1;" edge="1" parent="1">
          <mxGeometry width="50" height="50" relative="1" as="geometry">
            <mxPoint x="-343" y="180" as="sourcePoint" />
            <mxPoint x="1160" y="180" as="targetPoint" />
          </mxGeometry>
        </mxCell>
        <mxCell id="xPoohCOQVxPCVywEzcK_-71" value="Private Network" style="text;html=1;strokeColor=none;fillColor=none;align=center;verticalAlign=middle;whiteSpace=wrap;rounded=0;dashed=1;dashPattern=1 2;" vertex="1" parent="1">
          <mxGeometry x="-310" y="210" width="100" height="30" as="geometry" />
        </mxCell>
        <mxCell id="xPoohCOQVxPCVywEzcK_-72" value="" style="shape=flexArrow;endArrow=classic;html=1;rounded=0;" edge="1" parent="1">
          <mxGeometry width="50" height="50" relative="1" as="geometry">
            <mxPoint x="-320.5" y="170" as="sourcePoint" />
            <mxPoint x="-320.5" y="80" as="targetPoint" />
          </mxGeometry>
        </mxCell>
        <mxCell id="xPoohCOQVxPCVywEzcK_-73" value="Cloud network" style="text;html=1;strokeColor=none;fillColor=none;align=center;verticalAlign=middle;whiteSpace=wrap;rounded=0;dashed=1;dashPattern=1 2;" vertex="1" parent="1">
          <mxGeometry x="-300" y="120" width="100" height="30" as="geometry" />
        </mxCell>
        <mxCell id="xPoohCOQVxPCVywEzcK_-74" value="ACR" style="rounded=1;whiteSpace=wrap;html=1;dashed=1;dashPattern=1 2;" vertex="1" parent="1">
          <mxGeometry x="840" y="415" width="120" height="60" as="geometry" />
        </mxCell>
        <mxCell id="xPoohCOQVxPCVywEzcK_-76" value="" style="shape=flexArrow;endArrow=classic;html=1;rounded=0;dashed=1;dashPattern=1 1;" edge="1" parent="1" target="xPoohCOQVxPCVywEzcK_-60">
          <mxGeometry width="50" height="50" relative="1" as="geometry">
            <mxPoint x="850" y="440" as="sourcePoint" />
            <mxPoint x="900" y="390" as="targetPoint" />
          </mxGeometry>
        </mxCell>
        <mxCell id="xPoohCOQVxPCVywEzcK_-79" value="" style="edgeStyle=orthogonalEdgeStyle;rounded=0;orthogonalLoop=1;jettySize=auto;html=1;dashed=1;dashPattern=1 1;" edge="1" parent="1" source="xPoohCOQVxPCVywEzcK_-77" target="xPoohCOQVxPCVywEzcK_-78">
          <mxGeometry relative="1" as="geometry" />
        </mxCell>
        <mxCell id="xPoohCOQVxPCVywEzcK_-77" value="Github push" style="rounded=1;whiteSpace=wrap;html=1;dashed=1;dashPattern=1 2;" vertex="1" parent="1">
          <mxGeometry x="1010" y="80" width="120" height="60" as="geometry" />
        </mxCell>
        <mxCell id="xPoohCOQVxPCVywEzcK_-81" value="" style="edgeStyle=orthogonalEdgeStyle;rounded=0;orthogonalLoop=1;jettySize=auto;html=1;dashed=1;dashPattern=1 1;" edge="1" parent="1" source="xPoohCOQVxPCVywEzcK_-78" target="xPoohCOQVxPCVywEzcK_-80">
          <mxGeometry relative="1" as="geometry" />
        </mxCell>
        <mxCell id="xPoohCOQVxPCVywEzcK_-83" style="edgeStyle=orthogonalEdgeStyle;rounded=0;orthogonalLoop=1;jettySize=auto;html=1;exitX=0.5;exitY=1;exitDx=0;exitDy=0;dashed=1;dashPattern=1 1;" edge="1" parent="1" source="xPoohCOQVxPCVywEzcK_-78" target="xPoohCOQVxPCVywEzcK_-82">
          <mxGeometry relative="1" as="geometry" />
        </mxCell>
        <mxCell id="xPoohCOQVxPCVywEzcK_-78" value="Github Action" style="rounded=1;whiteSpace=wrap;html=1;dashed=1;dashPattern=1 2;" vertex="1" parent="1">
          <mxGeometry x="1010" y="220" width="120" height="60" as="geometry" />
        </mxCell>
        <mxCell id="xPoohCOQVxPCVywEzcK_-80" value="Build and Push Image" style="rounded=1;whiteSpace=wrap;html=1;dashed=1;dashPattern=1 2;" vertex="1" parent="1">
          <mxGeometry x="1010" y="415" width="120" height="60" as="geometry" />
        </mxCell>
        <mxCell id="xPoohCOQVxPCVywEzcK_-82" value="Deploy" style="rounded=1;whiteSpace=wrap;html=1;dashed=1;dashPattern=1 2;" vertex="1" parent="1">
          <mxGeometry x="1210" y="330" width="120" height="60" as="geometry" />
        </mxCell>
        <mxCell id="xPoohCOQVxPCVywEzcK_-84" value="" style="shape=flexArrow;endArrow=classic;html=1;rounded=0;dashed=1;dashPattern=1 1;exitX=0;exitY=0.5;exitDx=0;exitDy=0;" edge="1" parent="1" source="xPoohCOQVxPCVywEzcK_-80">
          <mxGeometry width="50" height="50" relative="1" as="geometry">
            <mxPoint x="1020" y="444.5" as="sourcePoint" />
            <mxPoint x="960" y="445" as="targetPoint" />
          </mxGeometry>
        </mxCell>
        <mxCell id="xPoohCOQVxPCVywEzcK_-85" value="" style="shape=flexArrow;endArrow=classic;html=1;rounded=0;dashed=1;dashPattern=1 1;exitX=0;exitY=0.5;exitDx=0;exitDy=0;width=21;endSize=8.67;" edge="1" parent="1" source="xPoohCOQVxPCVywEzcK_-82">
          <mxGeometry width="50" height="50" relative="1" as="geometry">
            <mxPoint x="840" y="349.5" as="sourcePoint" />
            <mxPoint x="790" y="360" as="targetPoint" />
          </mxGeometry>
        </mxCell>
      </root>
    </mxGraphModel>
  </diagram>
</mxfile>
